<svg width="34" height="32" viewBox="0 0 34 32" fill="none" xmlns="http://www.w3.org/2000/svg">
<path d="M11.3333 16.0693C14.1595 16.0693 16.2916 14.0627 16.2916 11.4027C16.2916 8.74268 14.1595 6.73601 11.3333 6.73601C8.507 6.73601 6.37492 8.74268 6.37492 11.4027C6.37492 14.0627 8.507 16.0693 11.3333 16.0693ZM12.7499 17.3333H9.91658C6.01084 17.3333 2.83325 20.324 2.83325 24V25.3333H19.8333V24C19.8333 20.324 16.6557 17.3333 12.7499 17.3333ZM26.0156 3.51468L24.0124 5.40001C25.8838 7.16401 26.9166 9.50801 26.9166 12C26.9166 14.492 25.8838 16.836 24.0124 18.6L26.0156 20.4853C28.4239 18.2173 29.7499 15.204 29.7499 12C29.7499 8.79601 28.4239 5.78268 26.0156 3.51468Z" fill="#00B906"/>
<path d="M22.0078 7.28534L20.0046 9.17334C20.8079 9.92667 21.2499 10.9307 21.2499 12C21.2499 13.0693 20.8079 14.0733 20.0046 14.8267L22.0078 16.7147C23.3451 15.456 24.0832 13.7827 24.0832 12C24.0832 10.2173 23.3451 8.54401 22.0078 7.28534Z" fill="#00B906"/>
</svg>
