<svg width="34" height="32" viewBox="0 0 34 32" fill="none" xmlns="http://www.w3.org/2000/svg">
<path d="M8.49992 16C8.49788 17.8886 9.20583 19.717 10.4985 21.1615C11.7911 22.6061 13.5851 23.5736 15.5628 23.8929C17.5406 24.2123 19.5746 23.8627 21.3048 22.9062C23.0351 21.9497 24.35 20.4479 25.0168 18.6667H16.9999V13.3333H30.8903V18.6667H30.8833C29.57 24.752 23.8538 29.3333 16.9999 29.3333C9.17567 29.3333 2.83325 23.364 2.83325 16C2.83325 8.63599 9.17567 2.66666 16.9999 2.66666C19.3155 2.66511 21.5961 3.19833 23.6417 4.21955C25.6873 5.24077 27.4354 6.7188 28.7328 8.52399L24.0889 11.584C23.0808 10.1499 21.6086 9.05963 19.8904 8.47488C18.1723 7.89012 16.2996 7.84197 14.5501 8.33757C12.8006 8.83317 11.2673 9.84613 10.1775 11.2263C9.08776 12.6065 8.49949 14.2804 8.49992 16V16Z" fill="#00B906"/>
</svg>
