<svg width="34" height="32" viewBox="0 0 34 32" fill="none" xmlns="http://www.w3.org/2000/svg">
<path fill-rule="evenodd" clip-rule="evenodd" d="M16.9999 2.66666C13.1523 2.66666 12.6706 2.68266 11.159 2.74666C9.65167 2.81199 8.62175 3.03732 7.72075 3.36666C6.77511 3.70112 5.9184 4.22576 5.21042 4.90399C4.48984 5.57035 3.93241 6.37666 3.577 7.26666C3.22709 8.11466 2.98767 9.08399 2.91825 10.5027C2.84884 11.9253 2.83325 12.3787 2.83325 16C2.83325 19.6213 2.84884 20.0747 2.91825 21.4973C2.98767 22.916 3.22709 23.8853 3.577 24.7333C3.93245 25.6233 4.48988 26.4296 5.21042 27.096C5.91846 27.7741 6.77515 28.2988 7.72075 28.6333C8.62175 28.9627 9.65167 29.188 11.159 29.2533C12.6706 29.3173 13.1523 29.3333 16.9999 29.3333C20.8476 29.3333 21.3293 29.3173 22.8408 29.2533C24.3482 29.188 25.3781 28.9627 26.2791 28.6333C27.2247 28.2988 28.0814 27.7742 28.7894 27.096C29.51 26.4296 30.0674 25.6233 30.4228 24.7333C30.7728 23.8853 31.0122 22.916 31.0816 21.4973C31.1496 20.0747 31.1666 19.6213 31.1666 16C31.1666 12.3787 31.1496 11.9253 31.0816 10.5027C31.0122 9.08399 30.7728 8.11466 30.4228 7.26666C30.0674 6.37666 29.51 5.57035 28.7894 4.90399C28.0814 4.22576 27.2247 3.70112 26.2791 3.36666C25.3781 3.03732 24.3482 2.81199 22.8408 2.74666C21.3293 2.68266 20.8476 2.66666 16.9999 2.66666ZM16.9999 5.06932C20.7824 5.06932 21.2301 5.08266 22.7233 5.14666C24.1059 5.20666 24.8553 5.42266 25.3554 5.60532C26.0156 5.84799 26.4888 6.13732 26.9846 6.60266C27.4804 7.06932 27.7864 7.51466 28.0443 8.13599C28.2369 8.60666 28.4693 9.31199 28.5316 10.612C28.5996 12.0187 28.6138 12.4387 28.6138 16C28.6138 19.56 28.5996 19.9813 28.5316 21.3867C28.4678 22.688 28.2369 23.3933 28.0443 23.864C27.8171 24.4432 27.455 24.9671 26.9846 25.3973C26.4888 25.864 26.0156 26.152 25.3554 26.3947C24.8553 26.576 24.1059 26.7947 22.7247 26.8533C21.2315 26.9173 20.7838 26.9307 16.9999 26.9307C13.2174 26.9307 12.7683 26.9173 11.2766 26.8533C9.89392 26.7933 9.1445 26.576 8.64442 26.3947C8.029 26.181 7.47229 25.8402 7.01525 25.3973C6.54472 24.9672 6.18262 24.4432 5.95559 23.864C5.7615 23.3933 5.53059 22.688 5.46825 21.388C5.40025 19.9813 5.38609 19.5613 5.38609 16C5.38609 12.44 5.40025 12.0187 5.46825 10.6133C5.532 9.31199 5.7615 8.60666 5.95559 8.13599C6.21342 7.51466 6.52084 7.06932 7.01525 6.60266C7.51109 6.13599 7.98425 5.84799 8.64442 5.60532C9.1445 5.42266 9.89392 5.20532 11.2752 5.14666C12.7698 5.08266 13.216 5.06932 16.9999 5.06932ZM16.9999 20.444C15.7476 20.444 14.5466 19.9758 13.6611 19.1424C12.7756 18.309 12.2782 17.1786 12.2782 16C12.2782 14.8214 12.7756 13.691 13.6611 12.8576C14.5466 12.0242 15.7476 11.556 16.9999 11.556C18.2522 11.556 19.4532 12.0242 20.3387 12.8576C21.2242 13.691 21.7217 14.8214 21.7217 16C21.7217 17.1786 21.2242 18.309 20.3387 19.1424C19.4532 19.9758 18.2522 20.444 16.9999 20.444ZM16.9999 9.15332C16.0446 9.15332 15.0986 9.33042 14.2161 9.67449C13.3335 10.0186 12.5315 10.5229 11.856 11.1587C11.1805 11.7944 10.6447 12.5492 10.2791 13.3799C9.9135 14.2106 9.72534 15.1009 9.72534 16C9.72534 16.8991 9.9135 17.7894 10.2791 18.6201C10.6447 19.4508 11.1805 20.2055 11.856 20.8413C12.5315 21.4771 13.3335 21.9814 14.2161 22.3255C15.0986 22.6696 16.0446 22.8467 16.9999 22.8467C18.9293 22.8467 20.7796 22.1253 22.1438 20.8413C23.5081 19.5573 24.2745 17.8158 24.2745 16C24.2745 14.1841 23.5081 12.4427 22.1438 11.1587C20.7796 9.87467 18.9293 9.15332 16.9999 9.15332ZM26.2621 8.88266C26.2621 9.09277 26.2181 9.30083 26.1327 9.49495C26.0472 9.68907 25.922 9.86545 25.7642 10.014C25.6063 10.1626 25.4189 10.2805 25.2126 10.3609C25.0064 10.4413 24.7853 10.4827 24.5621 10.4827C24.3388 10.4827 24.1178 10.4413 23.9115 10.3609C23.7053 10.2805 23.5179 10.1626 23.36 10.014C23.2021 9.86545 23.0769 9.68907 22.9915 9.49495C22.9061 9.30083 22.8621 9.09277 22.8621 8.88266C22.8621 8.45831 23.0412 8.05134 23.36 7.75129C23.6788 7.45123 24.1112 7.28266 24.5621 7.28266C25.013 7.28266 25.4454 7.45123 25.7642 7.75129C26.083 8.05134 26.2621 8.45831 26.2621 8.88266Z" fill="#00B906"/>
</svg>
