<svg width="92" height="36" viewBox="0 0 92 36" fill="none" xmlns="http://www.w3.org/2000/svg">
<path d="M34.32 15.089C34.32 14.927 32.322 14.495 29.379 14.171C32.295 9.878 35.508 5.585 37.938 3.263C38.802 2.453 39.666 1.859 40.179 2.183C40.665 2.534 39.72 0.751998 38.154 0.751998C37.965 0.751998 37.56 0.886998 37.074 1.184C36.399 1.643 35.535 2.399 34.617 3.371C32.241 5.963 29.379 9.986 26.895 13.928C25.68 13.847 24.546 13.82 23.493 13.82C22.332 13.82 21.225 13.847 20.091 13.928C22.413 10.904 25.977 6.179 25.977 3.344C25.95 1.157 23.871 0.643998 21.792 0.670999C14.124 0.751998 0.974997 9.851 1.029 14.387C1.029 15.278 1.65 15.818 2.622 15.791C3.594 15.791 4.566 14.954 4.566 14.711C4.323 14.927 3.675 15.089 3.27 15.089C3 15.089 2.811 15.008 2.811 14.657C2.784 13.172 13.935 1.427 22.008 1.292C23.061 1.265 24.033 1.616 24.06 2.642C24.087 4.532 19.821 10.391 17.148 14.036C15.339 14.279 6.483 15.116 6.51 17.411C6.51 18.356 7.32 18.977 7.32 18.68C7.293 18.086 11.262 16.331 16.014 15.548C12.261 20.867 10.128 25.403 10.128 27.563C10.128 28.535 10.668 29.183 11.289 29.156C11.451 29.156 11.613 29.129 11.748 29.075C11.37 29.021 11.208 28.778 11.208 28.427C11.181 26.51 15.042 20.354 19.092 15.197C22.98 14.765 24.6 14.657 26.49 14.63C23.79 19.085 21.549 24.107 21.684 26.51C21.738 27.104 22.197 27.59 22.602 27.563C23.142 27.536 24.033 26.726 24.519 26.159C24.033 26.429 23.682 26.78 23.088 26.834C22.899 26.861 22.818 26.753 22.818 26.537C22.737 25.025 25.545 19.976 29.028 14.684C31.755 14.792 33.726 15.089 34.32 15.089ZM42.5991 14.657C42.9771 14.252 43.3281 14.009 43.5441 14.036C43.7331 14.063 43.8411 14.198 43.8411 14.09C43.8411 13.415 42.7881 12.335 42.1671 12.335C42.0321 12.335 41.9241 12.362 41.7621 12.497C40.2771 13.685 38.1711 16.007 36.7401 17.384C35.4711 18.626 32.7171 21.056 31.4211 21.596C31.4211 20.813 32.7441 18.437 34.1211 16.655C35.0391 15.44 36.1461 14.144 36.5781 14.198C36.7941 14.225 36.8751 14.36 36.8751 14.252C36.8751 13.55 35.8491 12.497 35.2011 12.497C35.1201 12.497 34.9581 12.524 34.8231 12.659C34.1481 13.199 33.0411 14.414 32.1231 15.737C30.5841 17.87 29.0991 20.597 29.0991 21.758C29.0991 22.406 29.9361 23.135 30.3681 23.135C30.4221 23.135 30.5031 23.135 30.5841 23.135C32.2041 22.811 36.0111 18.761 38.7381 15.98C34.9311 20.354 31.2591 27.509 29.8551 30.587C29.3691 31.721 28.8021 32.909 28.7211 33.719C28.6401 34.205 29.0451 35.69 30.1251 35.582C30.2601 35.582 30.3681 35.555 30.4221 35.501C30.7191 34.205 34.2831 28.535 38.1441 25.457C38.1441 25.457 38.1441 25.295 38.0091 25.295C37.2261 25.538 33.3111 29.129 31.1781 32.072C32.7711 29.075 37.0641 21.38 39.1701 18.761C40.3581 17.303 41.4651 15.845 42.5991 14.657ZM48.6393 16.412C46.1553 19.274 43.8873 21.11 43.0773 21.542C43.2933 20.003 45.6423 16.358 46.7223 15.116C47.1003 14.684 47.4243 14.441 47.6673 14.441C47.9103 14.468 47.9913 14.576 47.9643 14.495C47.9373 13.793 46.8303 12.74 46.1283 12.74C46.0473 12.74 45.8853 12.767 45.7503 12.902C45.1293 13.415 44.5893 14.063 43.7793 15.305C42.2673 17.573 40.8633 20.624 40.9173 22.028C40.9713 22.244 41.6463 23.297 42.1593 23.297C42.4563 23.297 43.2393 22.622 44.0763 21.92C45.1563 21.029 47.0193 18.923 48.2613 17.492C47.5593 18.95 46.8303 20.867 46.9653 21.92C46.9923 22.136 47.6673 23.189 48.3423 23.189C49.4223 23.189 57.1983 15.683 59.2233 10.445C59.3583 10.175 59.3043 10.175 59.1423 10.391C56.6043 14.414 52.3383 19.382 48.9363 21.461C48.8283 21.083 49.6113 19.004 50.5833 17.465C51.6093 15.845 52.2033 15.17 52.6083 15.197C52.8783 15.224 52.9593 15.332 52.9593 15.251C52.9053 14.549 51.7443 13.523 51.0963 13.523C51.0153 13.523 50.8533 13.55 50.7183 13.658C50.2053 14.09 49.6653 14.9 48.6393 16.412ZM60.8433 20.759C60.7353 21.164 60.6273 21.488 60.6273 21.758C60.6273 22.244 61.1403 22.811 61.5183 23.027C61.7073 23.135 61.8423 23.189 61.9773 23.189C63.5973 23.189 67.9983 18.68 70.3473 16.115C70.4283 16.034 70.2933 15.818 70.1583 15.953C68.4843 17.519 64.6233 21.218 62.9223 21.704C62.9223 21.488 63.0303 21.164 63.1923 20.786C64.0023 19.058 66.4323 16.115 66.5673 16.385C66.6753 16.061 65.7573 14.576 65.2173 14.846C64.5423 15.224 62.7873 16.925 62.3013 17.357C60.8973 18.545 57.1173 21.272 56.2263 21.569C56.1453 21.596 56.0913 21.596 56.0373 21.569C55.7943 21.434 57.8193 18.032 60.3843 15.845C62.1393 14.36 64.1103 13.226 65.6763 13.145C66.4863 13.091 66.9993 13.496 66.9993 14.306C66.9993 14.711 66.8373 15.035 66.7023 15.278C66.6753 15.305 66.7293 15.332 66.7833 15.305C67.0533 14.954 67.2963 14.495 67.2963 14.036C67.2963 12.767 65.9463 12.335 64.9203 12.335C59.9523 12.335 53.7693 18.356 53.7693 21.299C53.7693 21.839 54.4713 22.865 54.9573 23.108C55.0113 23.135 55.1463 23.189 55.2003 23.189C56.3343 23.189 61.5993 18.653 62.4093 17.843C61.8963 18.518 61.1673 19.76 60.8433 20.759ZM80.2778 14.657C80.6558 14.252 81.0068 14.009 81.2228 14.036C81.4118 14.063 81.5198 14.198 81.5198 14.09C81.5198 13.415 80.4668 12.335 79.8458 12.335C79.7108 12.335 79.6028 12.362 79.4408 12.497C77.9558 13.685 75.8498 16.007 74.4188 17.384C73.1498 18.626 70.3958 21.056 69.0998 21.596C69.0998 20.813 70.4228 18.437 71.7998 16.655C72.7178 15.44 73.8248 14.144 74.2568 14.198C74.4728 14.225 74.5538 14.36 74.5538 14.252C74.5538 13.55 73.5278 12.497 72.8798 12.497C72.7988 12.497 72.6368 12.524 72.5018 12.659C71.8268 13.199 70.7198 14.414 69.8018 15.737C68.2628 17.87 66.7778 20.597 66.7778 21.758C66.7778 22.406 67.6148 23.135 68.0468 23.135C68.1008 23.135 68.1818 23.135 68.2628 23.135C69.8828 22.811 73.6898 18.761 76.4168 15.98C72.6098 20.354 68.9378 27.509 67.5338 30.587C67.0478 31.721 66.4808 32.909 66.3998 33.719C66.3188 34.205 66.7238 35.69 67.8038 35.582C67.9388 35.582 68.0468 35.555 68.1008 35.501C68.3978 34.205 71.9618 28.535 75.8228 25.457C75.8228 25.457 75.8228 25.295 75.6878 25.295C74.9048 25.538 70.9898 29.129 68.8568 32.072C70.4498 29.075 74.7428 21.38 76.8488 18.761C78.0368 17.303 79.1438 15.845 80.2778 14.657ZM87.6775 13.415C87.6235 13.955 85.8145 15.845 85.7335 15.845C85.7065 15.845 85.7605 15.953 85.7875 15.953C86.5165 15.953 88.2175 14.333 88.2445 13.955C88.3255 13.172 87.9745 11.93 87.2185 11.93C84.8425 11.93 80.9545 13.955 80.5225 16.007C80.2795 17.195 81.8725 18.167 82.1695 18.545C81.2245 18.923 77.2555 21.191 77.1745 22.352C77.3095 22.946 77.6065 23.432 78.2005 23.432C79.9555 23.432 83.5195 22.001 83.8975 20.246C83.9785 19.679 83.3035 18.896 82.9525 18.626C85.8955 16.871 91.2415 15.467 90.9985 15.386C90.9985 15.305 90.8905 15.251 90.8365 15.251C90.4855 15.251 87.0295 15.845 82.7095 18.275C82.4395 18.032 81.7915 17.6 81.8995 17.141C82.2505 15.872 86.4355 13.307 87.6775 13.415ZM82.2775 19.004C82.2775 20.03 78.9295 21.758 77.8765 22.055C78.6595 21.272 80.6575 19.922 82.2775 19.004Z" fill="white"/>
</svg>
