<svg width="163" height="163" viewBox="0 0 163 163" fill="none" xmlns="http://www.w3.org/2000/svg">
<path d="M63.572 109.695C63.572 109.443 60.464 108.771 55.886 108.267C60.422 101.589 65.42 94.9106 69.2 91.2986C70.544 90.0386 71.888 89.1146 72.686 89.6186C73.442 90.1646 71.972 87.3926 69.536 87.3926C69.242 87.3926 68.612 87.6026 67.856 88.0646C66.806 88.7786 65.462 89.9546 64.034 91.4666C60.338 95.4986 55.886 101.757 52.022 107.889C50.132 107.763 48.368 107.721 46.73 107.721C44.924 107.721 43.202 107.763 41.438 107.889C45.05 103.185 50.594 95.8346 50.594 91.4246C50.552 88.0226 47.318 87.2246 44.084 87.2666C32.156 87.3926 11.702 101.547 11.786 108.603C11.786 109.989 12.752 110.829 14.264 110.787C15.776 110.787 17.288 109.485 17.288 109.107C16.91 109.443 15.902 109.695 15.272 109.695C14.852 109.695 14.558 109.569 14.558 109.023C14.516 106.713 31.862 88.4426 44.42 88.2326C46.058 88.1906 47.57 88.7366 47.612 90.3326C47.654 93.2726 41.018 102.387 36.86 108.057C34.046 108.435 20.27 109.737 20.312 113.307C20.312 114.777 21.572 115.743 21.572 115.281C21.53 114.357 27.704 111.627 35.096 110.409C29.258 118.683 25.94 125.739 25.94 129.099C25.94 130.611 26.78 131.619 27.746 131.577C27.998 131.577 28.25 131.535 28.46 131.451C27.872 131.367 27.62 130.989 27.62 130.443C27.578 127.461 33.584 117.885 39.884 109.863C45.932 109.191 48.452 109.023 51.392 108.981C47.192 115.911 43.706 123.723 43.916 127.461C44 128.385 44.714 129.141 45.344 129.099C46.184 129.057 47.57 127.797 48.326 126.915C47.57 127.335 47.024 127.881 46.1 127.965C45.806 128.007 45.68 127.839 45.68 127.503C45.554 125.151 49.922 117.297 55.34 109.065C59.582 109.233 62.648 109.695 63.572 109.695ZM76.4505 109.023C77.0385 108.393 77.5845 108.015 77.9205 108.057C78.2145 108.099 78.3825 108.309 78.3825 108.141C78.3825 107.091 76.7445 105.411 75.7785 105.411C75.5685 105.411 75.4005 105.453 75.1485 105.663C72.8385 107.511 69.5625 111.123 67.3365 113.265C65.3625 115.197 61.0785 118.977 59.0625 119.817C59.0625 118.599 61.1205 114.903 63.2625 112.131C64.6905 110.241 66.4125 108.225 67.0845 108.309C67.4205 108.351 67.5465 108.561 67.5465 108.393C67.5465 107.301 65.9505 105.663 64.9425 105.663C64.8165 105.663 64.5645 105.705 64.3545 105.915C63.3045 106.755 61.5825 108.645 60.1545 110.703C57.7605 114.021 55.4505 118.263 55.4505 120.069C55.4505 121.077 56.7525 122.211 57.4245 122.211C57.5085 122.211 57.6345 122.211 57.7605 122.211C60.2805 121.707 66.2025 115.407 70.4445 111.081C64.5225 117.885 58.8105 129.015 56.6265 133.803C55.8705 135.567 54.9885 137.415 54.8625 138.675C54.7365 139.431 55.3665 141.741 57.0465 141.573C57.2565 141.573 57.4245 141.531 57.5085 141.447C57.9705 139.431 63.5145 130.611 69.5205 125.823C69.5205 125.823 69.5205 125.571 69.3105 125.571C68.0925 125.949 62.0025 131.535 58.6845 136.113C61.1625 131.451 67.8405 119.481 71.1165 115.407C72.9645 113.139 74.6865 110.871 76.4505 109.023ZM85.8464 111.753C81.9824 116.205 78.4544 119.061 77.1944 119.733C77.5304 117.339 81.1844 111.669 82.8644 109.737C83.4524 109.065 83.9564 108.687 84.3344 108.687C84.7124 108.729 84.8384 108.897 84.7964 108.771C84.7544 107.679 83.0324 106.041 81.9404 106.041C81.8144 106.041 81.5624 106.083 81.3524 106.293C80.3864 107.091 79.5464 108.099 78.2864 110.031C75.9344 113.559 73.7504 118.305 73.8344 120.489C73.9184 120.825 74.9684 122.463 75.7664 122.463C76.2284 122.463 77.4464 121.413 78.7484 120.321C80.4284 118.935 83.3264 115.659 85.2584 113.433C84.1664 115.701 83.0324 118.683 83.2424 120.321C83.2844 120.657 84.3344 122.295 85.3844 122.295C87.0644 122.295 99.1604 110.619 102.31 102.471C102.52 102.051 102.436 102.051 102.184 102.387C98.2364 108.645 91.6004 116.373 86.3084 119.607C86.1404 119.019 87.3584 115.785 88.8704 113.391C90.4664 110.871 91.3904 109.821 92.0204 109.863C92.4404 109.905 92.5664 110.073 92.5664 109.947C92.4824 108.855 90.6764 107.259 89.6684 107.259C89.5424 107.259 89.2904 107.301 89.0804 107.469C88.2824 108.141 87.4424 109.401 85.8464 111.753ZM104.83 118.515C104.662 119.145 104.494 119.649 104.494 120.069C104.494 120.825 105.292 121.707 105.88 122.043C106.174 122.211 106.384 122.295 106.594 122.295C109.114 122.295 115.96 115.281 119.614 111.291C119.74 111.165 119.53 110.829 119.32 111.039C116.716 113.475 110.71 119.229 108.064 119.985C108.064 119.649 108.232 119.145 108.484 118.557C109.744 115.869 113.524 111.291 113.734 111.711C113.902 111.207 112.474 108.897 111.634 109.317C110.584 109.905 107.854 112.551 107.098 113.223C104.914 115.071 99.0344 119.313 97.6484 119.775C97.5224 119.817 97.4384 119.817 97.3544 119.775C96.9764 119.565 100.126 114.273 104.116 110.871C106.846 108.561 109.912 106.797 112.348 106.671C113.608 106.587 114.406 107.217 114.406 108.477C114.406 109.107 114.154 109.611 113.944 109.989C113.902 110.031 113.986 110.073 114.07 110.031C114.49 109.485 114.868 108.771 114.868 108.057C114.868 106.083 112.768 105.411 111.172 105.411C103.444 105.411 93.8264 114.777 93.8264 119.355C93.8264 120.195 94.9184 121.791 95.6744 122.169C95.7584 122.211 95.9684 122.295 96.0524 122.295C97.8164 122.295 106.006 115.239 107.266 113.979C106.468 115.029 105.334 116.961 104.83 118.515ZM135.062 109.023C135.65 108.393 136.196 108.015 136.532 108.057C136.826 108.099 136.994 108.309 136.994 108.141C136.994 107.091 135.356 105.411 134.39 105.411C134.18 105.411 134.012 105.453 133.76 105.663C131.45 107.511 128.174 111.123 125.948 113.265C123.974 115.197 119.69 118.977 117.674 119.817C117.674 118.599 119.732 114.903 121.874 112.131C123.302 110.241 125.024 108.225 125.696 108.309C126.032 108.351 126.158 108.561 126.158 108.393C126.158 107.301 124.562 105.663 123.554 105.663C123.428 105.663 123.176 105.705 122.966 105.915C121.916 106.755 120.194 108.645 118.766 110.703C116.372 114.021 114.062 118.263 114.062 120.069C114.062 121.077 115.364 122.211 116.036 122.211C116.12 122.211 116.246 122.211 116.372 122.211C118.892 121.707 124.814 115.407 129.056 111.081C123.134 117.885 117.422 129.015 115.238 133.803C114.482 135.567 113.6 137.415 113.474 138.675C113.348 139.431 113.978 141.741 115.658 141.573C115.868 141.573 116.036 141.531 116.12 141.447C116.582 139.431 122.126 130.611 128.132 125.823C128.132 125.823 128.132 125.571 127.922 125.571C126.704 125.949 120.614 131.535 117.296 136.113C119.774 131.451 126.452 119.481 129.728 115.407C131.576 113.139 133.298 110.871 135.062 109.023ZM146.572 107.091C146.488 107.931 143.674 110.871 143.548 110.871C143.506 110.871 143.59 111.039 143.632 111.039C144.766 111.039 147.412 108.519 147.454 107.931C147.58 106.713 147.034 104.781 145.858 104.781C142.162 104.781 136.114 107.931 135.442 111.123C135.064 112.971 137.542 114.483 138.004 115.071C136.534 115.659 130.36 119.187 130.234 120.993C130.444 121.917 130.906 122.673 131.83 122.673C134.56 122.673 140.104 120.447 140.692 117.717C140.818 116.835 139.768 115.617 139.222 115.197C143.8 112.467 152.116 110.283 151.738 110.157C151.738 110.031 151.57 109.947 151.486 109.947C150.94 109.947 145.564 110.871 138.844 114.651C138.424 114.273 137.416 113.601 137.584 112.887C138.13 110.913 144.64 106.923 146.572 107.091ZM138.172 115.785C138.172 117.381 132.964 120.069 131.326 120.531C132.544 119.313 135.652 117.213 138.172 115.785Z" fill="#00B906"/>
<path d="M1.41 160.001H4.89C8.16 160.001 10.47 157.856 10.47 154.841C10.47 151.826 8.16 149.696 4.89 149.696H1.41V160.001ZM2.58 158.936V150.761H4.89C7.47 150.761 9.285 152.456 9.285 154.841C9.285 157.241 7.47 158.936 4.89 158.936H2.58ZM13.1208 150.836C13.5258 150.836 13.8558 150.491 13.8558 150.086C13.8558 149.696 13.5258 149.351 13.1208 149.351C12.7008 149.351 12.3708 149.696 12.3708 150.086C12.3708 150.491 12.7008 150.836 13.1208 150.836ZM12.5508 160.001H13.6758V152.246H12.5508V160.001ZM21.9649 152.246V153.581C21.3649 152.636 20.3749 152.066 19.1449 152.066C17.0599 152.066 15.5749 153.581 15.5749 155.741C15.5749 157.901 17.0599 159.431 19.1449 159.431C20.3749 159.431 21.3649 158.861 21.9649 157.916V159.176C21.9649 160.691 20.9149 161.576 19.1299 161.576C18.1699 161.576 17.2399 161.231 16.6399 160.661L16.1449 161.546C16.8499 162.146 18.0199 162.581 19.2799 162.581C21.5149 162.581 23.0899 161.171 23.0899 159.176V152.246H21.9649ZM19.3549 158.426C17.8399 158.426 16.7599 157.316 16.7599 155.741C16.7599 154.181 17.8399 153.071 19.3549 153.071C20.8849 153.071 21.9649 154.181 21.9649 155.741C21.9649 157.316 20.8849 158.426 19.3549 158.426ZM26.0261 150.836C26.4311 150.836 26.7611 150.491 26.7611 150.086C26.7611 149.696 26.4311 149.351 26.0261 149.351C25.6061 149.351 25.2761 149.696 25.2761 150.086C25.2761 150.491 25.6061 150.836 26.0261 150.836ZM25.4561 160.001H26.5811V152.246H25.4561V160.001ZM32.2452 158.861C32.0802 159.041 31.7802 159.176 31.4352 159.176C30.9852 159.176 30.5952 158.771 30.5952 158.201V153.251H32.5002V152.246H30.5952V150.116H29.4702V152.246H28.2552V153.251H29.4702V158.201C29.4702 159.356 30.2502 160.181 31.3602 160.181C31.8852 160.181 32.3952 160.001 32.8002 159.686L32.2452 158.861ZM37.542 152.066C36.792 152.066 35.862 152.261 34.752 152.816L35.202 153.731C35.907 153.371 36.687 153.026 37.467 153.026C39.147 153.026 39.567 154.226 39.567 155.276V155.561C38.772 155.306 37.887 155.126 37.047 155.126C35.382 155.126 34.002 156.161 34.002 157.706C34.002 159.236 35.202 160.181 36.837 160.181C37.857 160.181 39.012 159.701 39.567 158.786V160.001H40.692V155.276C40.692 153.401 39.657 152.066 37.542 152.066ZM37.032 159.191C35.937 159.191 35.097 158.621 35.097 157.661C35.097 156.731 36.072 156.071 37.227 156.071C38.067 156.071 38.862 156.191 39.567 156.386V157.571C39.267 158.666 38.052 159.191 37.032 159.191ZM42.9906 160.001H44.1156V149.516H42.9906V160.001ZM51.0096 160.001H54.4896C57.7596 160.001 60.0696 157.856 60.0696 154.841C60.0696 151.826 57.7596 149.696 54.4896 149.696H51.0096V160.001ZM52.1796 158.936V150.761H54.4896C57.0696 150.761 58.8846 152.456 58.8846 154.841C58.8846 157.241 57.0696 158.936 54.4896 158.936H52.1796ZM63.3954 153.761V152.246H62.2704V160.001H63.3954V155.666C63.3954 154.151 64.6404 153.071 66.3954 153.071V152.066C64.9704 152.066 63.8604 152.726 63.3954 153.761ZM68.5065 150.836C68.9115 150.836 69.2415 150.491 69.2415 150.086C69.2415 149.696 68.9115 149.351 68.5065 149.351C68.0865 149.351 67.7565 149.696 67.7565 150.086C67.7565 150.491 68.0865 150.836 68.5065 150.836ZM67.9365 160.001H69.0615V152.246H67.9365V160.001ZM73.8857 160.001H74.9657L78.2207 152.246H76.9607L74.4257 158.681L71.8457 152.246H70.5857L73.8857 160.001ZM82.7405 159.176C81.2105 159.176 80.1455 158.066 79.9805 156.551H86.3255C86.3255 153.836 84.9905 152.066 82.6505 152.066C80.5655 152.066 78.8255 153.791 78.8255 156.101C78.8255 158.486 80.6855 160.181 82.7555 160.181C83.8355 160.181 85.2005 159.716 85.8755 158.981L85.1855 158.246C84.7055 158.771 83.6555 159.176 82.7405 159.176ZM82.6955 153.071C84.2405 153.071 85.0655 154.151 85.2155 155.546H79.9955C80.2055 154.046 81.3155 153.071 82.6955 153.071ZM89.3964 153.761V152.246H88.2714V160.001H89.3964V155.666C89.3964 154.151 90.6414 153.071 92.3964 153.071V152.066C90.9714 152.066 89.8614 152.726 89.3964 153.761ZM94.2375 153.566H94.8975C95.0175 152.696 95.2575 151.316 95.2575 150.566C95.2575 150.191 94.9425 149.876 94.5675 149.876C94.1925 149.876 93.8775 150.191 93.8775 150.566C93.8775 151.316 94.1175 152.696 94.2375 153.566ZM100.213 160.181C101.818 160.181 103.048 159.266 103.048 157.841C103.048 156.371 101.758 155.951 100.513 155.561C99.0731 155.096 98.5031 154.886 98.5031 154.211C98.5031 153.461 99.2231 153.071 100.093 153.071C100.783 153.071 101.548 153.311 102.328 153.806L102.868 152.936C102.043 152.396 101.053 152.066 100.093 152.066C98.5481 152.066 97.3781 152.936 97.3781 154.346C97.3781 155.456 98.0981 156.011 99.9731 156.551C101.023 156.851 101.923 157.121 101.923 157.961C101.923 158.696 101.233 159.176 100.213 159.176C99.3581 159.176 98.4731 158.846 97.5881 158.201L97.0031 159.026C97.9331 159.776 99.1331 160.181 100.213 160.181ZM110.31 158.891V149.696H109.14V160.001H115.935V158.891H110.31ZM118.135 150.836C118.54 150.836 118.87 150.491 118.87 150.086C118.87 149.696 118.54 149.351 118.135 149.351C117.715 149.351 117.385 149.696 117.385 150.086C117.385 150.491 117.715 150.836 118.135 150.836ZM117.565 160.001H118.69V152.246H117.565V160.001ZM124.55 160.181C125.63 160.181 126.62 159.731 127.355 158.996L126.575 158.231C126.05 158.816 125.33 159.176 124.55 159.176C123.005 159.176 121.715 157.781 121.715 156.116C121.715 154.466 123.005 153.071 124.55 153.071C125.315 153.071 126.02 153.416 126.53 153.971L127.31 153.206C126.575 152.501 125.6 152.066 124.55 152.066C122.375 152.066 120.53 153.911 120.53 156.116C120.53 158.321 122.375 160.181 124.55 160.181ZM132.574 159.176C131.044 159.176 129.979 158.066 129.814 156.551H136.159C136.159 153.836 134.824 152.066 132.484 152.066C130.399 152.066 128.659 153.791 128.659 156.101C128.659 158.486 130.519 160.181 132.589 160.181C133.669 160.181 135.034 159.716 135.709 158.981L135.019 158.246C134.539 158.771 133.489 159.176 132.574 159.176ZM132.529 153.071C134.074 153.071 134.899 154.151 135.049 155.546H129.829C130.039 154.046 131.149 153.071 132.529 153.071ZM141.69 152.066C140.595 152.066 139.59 152.666 139.14 153.491V152.246H138.015V160.001H139.14V155.066C139.14 153.986 140.235 153.071 141.54 153.071C142.68 153.071 143.475 153.956 143.475 155.216V160.001H144.6V155.066C144.6 153.311 143.4 152.066 141.69 152.066ZM149.622 160.181C151.227 160.181 152.457 159.266 152.457 157.841C152.457 156.371 151.167 155.951 149.922 155.561C148.482 155.096 147.912 154.886 147.912 154.211C147.912 153.461 148.632 153.071 149.502 153.071C150.192 153.071 150.957 153.311 151.737 153.806L152.277 152.936C151.452 152.396 150.462 152.066 149.502 152.066C147.957 152.066 146.787 152.936 146.787 154.346C146.787 155.456 147.507 156.011 149.382 156.551C150.432 156.851 151.332 157.121 151.332 157.961C151.332 158.696 150.642 159.176 149.622 159.176C148.767 159.176 147.882 158.846 146.997 158.201L146.412 159.026C147.342 159.776 148.542 160.181 149.622 160.181ZM157.814 159.176C156.284 159.176 155.219 158.066 155.054 156.551H161.399C161.399 153.836 160.064 152.066 157.724 152.066C155.639 152.066 153.899 153.791 153.899 156.101C153.899 158.486 155.759 160.181 157.829 160.181C158.909 160.181 160.274 159.716 160.949 158.981L160.259 158.246C159.779 158.771 158.729 159.176 157.814 159.176ZM157.769 153.071C159.314 153.071 160.139 154.151 160.289 155.546H155.069C155.279 154.046 156.389 153.071 157.769 153.071Z" fill="black"/>
<path d="M53.747 51.2156L53.724 51.2276C52.5817 51.6996 51.4154 52.1115 50.23 52.4616C49.645 52.6396 49.036 52.8126 48.413 52.9616C47.839 53.1136 47.213 53.2446 46.584 53.3666C46.057 53.4766 45.519 53.5726 44.959 53.6476C44.859 53.6706 44.659 53.6966 44.474 53.7206C44.006 53.7976 43.537 53.8476 43.069 53.8936L42.786 53.9266C42.222 53.9826 41.699 54.0156 41.177 54.0416C40.453 54.0886 39.704 54.1116 38.945 54.1116C38.521 54.1116 38.102 54.0996 37.678 54.0886C37.254 54.0776 36.835 54.0626 36.4 54.0256C36.007 54.0046 35.583 53.9806 35.164 53.9256C34.799 53.8956 34.408 53.8486 34.012 53.8016C32.932 53.6656 31.925 53.5016 30.912 53.2936C30.474 53.2066 30.043 53.1106 29.612 52.9936C29.453 52.9586 29.242 52.9026 29.031 52.8436C28.523 52.7076 28.057 52.5766 27.598 52.4336L27.542 52.4196L27.413 52.3886C26.813 52.1986 26.213 52.0066 25.626 51.7886C25.039 51.5706 24.509 51.3646 23.959 51.1376H23.941C23.8893 51.1228 23.8385 51.1048 23.789 51.0836L23.175 50.8266C23.5621 51.7935 24.042 52.7205 24.608 53.5946C24.749 53.8146 24.891 54.0136 25.032 54.2126L25.105 54.3036C25.5712 54.9473 26.0882 55.5526 26.651 56.1136C28.1082 57.5722 29.8385 58.7293 31.7432 59.5188C33.6478 60.3083 35.6893 60.7146 37.751 60.7146C39.8128 60.7146 41.8543 60.3083 43.7589 59.5188C45.6636 58.7293 47.3939 57.5722 48.851 56.1136L53.743 51.2196L53.747 51.2156Z" fill="url(#paint0_linear_29_234)"/>
<path d="M135.284 7.94863C134.563 7.2333 133.775 6.58931 132.93 6.02563C132.881 5.99296 132.834 5.95686 132.79 5.91763C129.771 3.94759 126.167 3.07426 122.58 3.44379C118.994 3.81332 115.644 5.40329 113.09 7.94762L99.303 21.7366L121.383 43.8316L121.493 43.9416L135.284 30.1556C138.228 27.2101 139.881 23.2163 139.881 19.0521C139.881 14.8879 138.228 10.8941 135.284 7.94863V7.94863Z" fill="url(#paint1_linear_29_234)"/>
<path d="M119.424 46.0116C118.459 45.1916 117.499 44.4216 116.558 43.7026C115.753 43.094 114.943 42.511 114.129 41.9536C114.094 41.9306 114.059 41.9026 114.024 41.8806C113.989 41.8586 113.824 41.7256 113.778 41.6866C111.978 40.4865 110.105 39.3978 108.172 38.4266L107.357 38.0266C106.783 37.7546 106.21 37.4926 105.634 37.2466L105.226 37.0756C105.006 36.9756 104.809 36.9026 104.608 36.8206C104.318 36.7036 104.023 36.6056 103.732 36.4976C102.947 36.1976 102.168 35.9286 101.39 35.6916C100.772 35.5016 100.151 35.3196 99.517 35.1596C98.883 34.9996 98.278 34.8716 97.655 34.7456C97.313 34.6756 96.971 34.5976 96.627 34.5376C95.95 34.4186 95.271 34.3266 94.592 34.2446C94.302 34.2076 94.011 34.1646 93.721 34.1366C93.054 34.0716 92.391 34.0316 91.731 34.0006C91.398 33.9846 91.066 33.9656 90.731 33.9606C90.101 33.9466 89.481 33.9606 88.858 33.9746C88.39 33.9906 87.903 34.0006 87.439 34.0306C87.37 34.0283 87.301 34.033 87.233 34.0446C87.013 34.0566 86.851 34.0636 86.687 34.0866C85.987 34.1476 85.317 34.2296 84.652 34.3206C84.2146 34.3873 83.786 34.4583 83.366 34.5336C83.019 34.5966 82.678 34.6596 82.343 34.7336C82.2864 34.7383 82.2306 34.75 82.177 34.7686C81.3616 34.9373 80.552 35.1346 79.748 35.3606L79.636 35.3906C78.812 35.6246 77.9883 35.8886 77.165 36.1826L76.565 36.3976C76.174 36.5456 75.801 36.6976 75.432 36.8476C74.856 37.0816 74.31 37.3276 73.776 37.5736C73.6 37.6556 73.415 37.7376 73.244 37.8196C72.684 38.0886 72.144 38.3676 71.619 38.6556C71.542 38.6976 71.453 38.7396 71.385 38.7796L71.359 38.7936H71.342C71.2903 38.8273 71.2361 38.8571 71.18 38.8826L70.852 39.0726C70.618 39.2086 70.384 39.3446 70.173 39.4726L69.993 39.5846C69.721 39.7506 69.461 39.9126 69.241 40.0526L86.199 57.0006C87.4658 58.273 88.9445 59.3149 90.569 60.0796L90.642 60.1126C92.7284 61.0902 95.0039 61.5981 97.308 61.6006C99.3694 61.606 101.411 61.2022 103.316 60.4126C105.22 59.623 106.948 58.4632 108.401 57.0006L119.424 46.0116Z" fill="url(#paint2_linear_29_234)"/>
<path d="M26.6571 33.9146C24.9368 35.6421 23.6418 37.7459 22.8743 40.0598C22.1069 42.3738 21.888 44.8345 22.2351 47.2476C22.5631 47.4166 22.8931 47.5826 23.2281 47.7396C23.6961 47.9736 24.1651 48.1756 24.6141 48.3746L24.8481 48.4746C24.9231 48.5006 24.9911 48.5286 25.0541 48.5566C25.5081 48.7436 26.0541 48.9566 26.6071 49.1566C27.1151 49.3416 27.6371 49.5076 28.1601 49.6766L28.3011 49.7096C28.7691 49.8546 29.2381 49.9906 29.7061 50.1096C29.9401 50.1776 30.1161 50.2216 30.2771 50.2596C30.7061 50.3696 31.0871 50.4596 31.4771 50.5316C32.4137 50.7236 33.3637 50.8796 34.3271 50.9996C34.7161 51.0436 35.0901 51.0866 35.4651 51.1216C35.8401 51.1566 36.2311 51.1876 36.6081 51.2106C37.0271 51.2436 37.3951 51.2556 37.7791 51.2646C38.8961 51.3046 39.9661 51.2906 41.0391 51.2226C41.5391 51.1996 42.0181 51.1646 42.4841 51.1226L42.8021 51.0876C43.2021 51.0456 43.6171 51.0036 44.0201 50.9376C44.2541 50.9046 44.3831 50.8886 44.5091 50.8626C45.0831 50.7826 45.5631 50.6966 46.0401 50.5976C46.6301 50.4826 47.1941 50.3636 47.7401 50.2206C48.3351 50.0826 48.8851 49.9276 49.4241 49.7636C50.5095 49.4408 51.5776 49.0623 52.6241 48.6296L52.6991 48.5996C53.4937 48.2876 54.2657 47.9456 55.0151 47.5736C55.3971 47.3816 55.7811 47.1806 56.1621 46.9736C56.4151 46.8446 56.6471 46.7206 56.8811 46.5736C57.2021 46.3976 57.4551 46.2526 57.7101 46.1056C57.7911 46.0545 57.8772 46.0119 57.9671 45.9786C58.3391 45.7256 58.6671 45.5316 58.9761 45.3156C59.5051 44.9716 59.8851 44.7016 60.2621 44.4306C60.6391 44.1596 61.0391 43.8566 61.4071 43.5716L66.0911 38.8876C66.6075 38.4643 67.1495 38.0732 67.7141 37.7166C67.9981 37.5306 68.3244 37.326 68.6931 37.1026C68.7281 37.0816 68.9601 36.9436 68.9931 36.9266L69.8851 36.4066C69.9411 36.3716 70.0021 36.3416 70.0631 36.3066C71.4801 35.5251 72.9424 34.8286 74.4421 34.2206C74.8211 34.0636 75.0771 33.9606 75.3421 33.8646C75.6071 33.7686 75.8621 33.6706 76.1501 33.5646C77.9144 32.9278 79.7212 32.4152 81.5571 32.0306C81.8331 31.9536 82.1851 31.8906 82.5471 31.8306C83.1471 31.7046 83.8071 31.5966 84.4861 31.5096C85.0951 31.4226 85.7151 31.3506 86.3451 31.3016C86.5772 31.2688 86.8108 31.2484 87.0451 31.2406C87.3751 31.2076 87.7641 31.1816 88.1641 31.1706C88.7641 31.1426 89.4031 31.1266 90.0491 31.1266C93.576 31.1341 97.0872 31.5979 100.495 32.5066C100.949 32.6256 101.432 32.7576 101.9 32.9066C103.022 33.2346 104.176 33.6326 105.338 34.0896C105.687 34.2256 106.019 34.3616 106.35 34.5086C106.681 34.6556 107.013 34.7846 107.362 34.9396C107.809 35.1396 108.109 35.2726 108.409 35.4076L109.463 35.9256L109.575 35.9816L83.1851 9.59063L83.0851 9.48563L78.1941 4.60063C76.7956 3.19329 75.1386 2.06907 73.3141 1.28963C70.4266 0.0405489 67.2303 -0.311636 64.1401 0.278793C61.05 0.869222 58.2087 2.37499 55.9851 4.60063L26.6571 33.9146Z" fill="url(#paint3_linear_29_234)"/>
<defs>
<linearGradient id="paint0_linear_29_234" x1="38.461" y1="50.8266" x2="38.461" y2="60.7146" gradientUnits="userSpaceOnUse">
<stop stop-color="#064B09"/>
<stop offset="1" stop-color="#00B906"/>
</linearGradient>
<linearGradient id="paint1_linear_29_234" x1="119.592" y1="3.3609" x2="119.592" y2="43.9416" gradientUnits="userSpaceOnUse">
<stop stop-color="#064B09"/>
<stop offset="1" stop-color="#00B906"/>
</linearGradient>
<linearGradient id="paint2_linear_29_234" x1="94.3325" y1="33.9548" x2="94.3325" y2="61.6007" gradientUnits="userSpaceOnUse">
<stop stop-color="#064B09"/>
<stop offset="1" stop-color="#00B906"/>
</linearGradient>
<linearGradient id="paint3_linear_29_234" x1="65.825" y1="0" x2="65.825" y2="51.2868" gradientUnits="userSpaceOnUse">
<stop stop-color="#064B09"/>
<stop offset="1" stop-color="#00B906"/>
</linearGradient>
</defs>
</svg>
