<svg width="118" height="62" viewBox="0 0 118 62" fill="none" xmlns="http://www.w3.org/2000/svg">
<path d="M31.747 51.2156L31.724 51.2276C30.5817 51.6996 29.4154 52.1115 28.23 52.4616C27.6451 52.6396 27.036 52.8126 26.413 52.9616C25.839 53.1136 25.213 53.2446 24.584 53.3666C24.057 53.4766 23.519 53.5726 22.959 53.6476C22.859 53.6706 22.659 53.6966 22.474 53.7206C22.006 53.7976 21.537 53.8476 21.069 53.8936L20.786 53.9266C20.222 53.9826 19.699 54.0156 19.177 54.0416C18.453 54.0886 17.7041 54.1116 16.945 54.1116C16.521 54.1116 16.102 54.0996 15.678 54.0886C15.254 54.0776 14.835 54.0626 14.4 54.0256C14.007 54.0046 13.583 53.9806 13.164 53.9256C12.799 53.8956 12.408 53.8486 12.012 53.8016C10.932 53.6656 9.92505 53.5016 8.91205 53.2936C8.47405 53.2066 8.04305 53.1106 7.61205 52.9936C7.45305 52.9586 7.24205 52.9026 7.03105 52.8436C6.52305 52.7076 6.05705 52.5766 5.59805 52.4336L5.54205 52.4196L5.41305 52.3886C4.81305 52.1986 4.21305 52.0066 3.62605 51.7886C3.03905 51.5706 2.50905 51.3646 1.95905 51.1376H1.94105C1.88931 51.1228 1.83855 51.1048 1.78905 51.0836L1.17505 50.8266C1.56207 51.7935 2.04198 52.7205 2.60805 53.5946C2.74905 53.8146 2.89105 54.0136 3.03205 54.2126L3.10505 54.3036C3.57116 54.9473 4.08815 55.5526 4.65105 56.1136C6.1082 57.5722 7.83854 58.7293 9.74316 59.5188C11.6478 60.3083 13.6893 60.7146 15.751 60.7146C17.8128 60.7146 19.8543 60.3083 21.7589 59.5188C23.6636 58.7293 25.3939 57.5722 26.851 56.1136L31.743 51.2196L31.747 51.2156Z" fill="url(#paint0_linear_29_203)"/>
<path d="M113.284 7.94863C112.563 7.2333 111.775 6.58931 110.93 6.02563C110.881 5.99296 110.834 5.95686 110.79 5.91763C107.771 3.94759 104.167 3.07426 100.58 3.44379C96.9944 3.81332 93.644 5.40329 91.09 7.94762L77.303 21.7366L99.383 43.8316L99.493 43.9416L113.284 30.1556C116.228 27.2101 117.881 23.2163 117.881 19.0521C117.881 14.8879 116.228 10.8941 113.284 7.94863Z" fill="url(#paint1_linear_29_203)"/>
<path d="M97.424 46.0116C96.459 45.1916 95.499 44.4216 94.558 43.7026C93.7526 43.094 92.943 42.511 92.129 41.9536C92.094 41.9306 92.059 41.9026 92.024 41.8806C91.989 41.8586 91.824 41.7256 91.778 41.6866C89.9777 40.4865 88.1055 39.3978 86.172 38.4266L85.357 38.0266C84.783 37.7546 84.21 37.4926 83.634 37.2466L83.226 37.0756C83.006 36.9756 82.809 36.9026 82.608 36.8206C82.318 36.7036 82.023 36.6056 81.732 36.4976C80.947 36.1976 80.168 35.9286 79.39 35.6916C78.772 35.5016 78.151 35.3196 77.517 35.1596C76.883 34.9996 76.278 34.8716 75.655 34.7456C75.313 34.6756 74.971 34.5976 74.627 34.5376C73.95 34.4186 73.271 34.3266 72.592 34.2446C72.302 34.2076 72.011 34.1646 71.721 34.1366C71.054 34.0716 70.391 34.0316 69.731 34.0006C69.398 33.9846 69.066 33.9656 68.731 33.9606C68.101 33.9466 67.481 33.9606 66.858 33.9746C66.39 33.9906 65.903 34.0006 65.439 34.0306C65.37 34.0283 65.301 34.033 65.233 34.0446C65.013 34.0566 64.851 34.0636 64.687 34.0866C63.987 34.1476 63.317 34.2296 62.652 34.3206C62.2146 34.3873 61.786 34.4583 61.366 34.5336C61.019 34.5966 60.678 34.6596 60.343 34.7336C60.2864 34.7383 60.2306 34.75 60.177 34.7686C59.3616 34.9373 58.552 35.1346 57.748 35.3606L57.636 35.3906C56.812 35.6246 55.9883 35.8886 55.165 36.1826L54.565 36.3976C54.174 36.5456 53.801 36.6976 53.432 36.8476C52.856 37.0816 52.31 37.3276 51.776 37.5736C51.6 37.6556 51.415 37.7376 51.244 37.8196C50.684 38.0886 50.144 38.3676 49.619 38.6556C49.542 38.6976 49.453 38.7396 49.385 38.7796L49.359 38.7936H49.342C49.2903 38.8273 49.2361 38.8571 49.18 38.8826L48.852 39.0726C48.618 39.2086 48.384 39.3446 48.173 39.4726L47.993 39.5846C47.721 39.7506 47.461 39.9126 47.241 40.0526L64.199 57.0006C65.4658 58.273 66.9445 59.3149 68.569 60.0796L68.642 60.1126C70.7284 61.0902 73.0039 61.5981 75.308 61.6006C77.3694 61.606 79.4114 61.2022 81.3156 60.4126C83.2198 59.623 84.9483 58.4632 86.401 57.0006L97.424 46.0116Z" fill="url(#paint2_linear_29_203)"/>
<path d="M4.65708 33.9146C2.93679 35.6421 1.64177 37.7459 0.874323 40.0598C0.106876 42.3738 -0.111968 44.8345 0.23508 47.2476C0.56308 47.4166 0.893081 47.5826 1.22808 47.7396C1.69608 47.9736 2.16508 48.1756 2.61408 48.3746L2.84808 48.4746C2.92308 48.5006 2.99108 48.5286 3.05408 48.5566C3.50808 48.7436 4.05408 48.9566 4.60708 49.1566C5.11508 49.3416 5.63708 49.5076 6.16008 49.6766L6.30108 49.7096C6.76908 49.8546 7.23808 49.9906 7.70608 50.1096C7.94008 50.1776 8.11608 50.2216 8.27708 50.2596C8.70608 50.3696 9.08708 50.4596 9.47708 50.5316C10.4137 50.7236 11.3637 50.8796 12.3271 50.9996C12.7161 51.0436 13.0901 51.0866 13.4651 51.1216C13.8401 51.1566 14.2311 51.1876 14.6081 51.2106C15.0271 51.2436 15.3951 51.2556 15.7791 51.2646C16.8961 51.3046 17.9661 51.2906 19.0391 51.2226C19.5391 51.1996 20.0181 51.1646 20.4841 51.1226L20.8021 51.0876C21.2021 51.0456 21.6171 51.0036 22.0201 50.9376C22.2541 50.9046 22.3831 50.8886 22.5091 50.8626C23.0831 50.7826 23.5631 50.6966 24.0401 50.5976C24.6301 50.4826 25.1941 50.3636 25.7401 50.2206C26.3351 50.0826 26.8851 49.9276 27.4241 49.7636C28.5095 49.4408 29.5776 49.0623 30.6241 48.6296L30.6991 48.5996C31.4937 48.2876 32.2657 47.9456 33.0151 47.5736C33.3971 47.3816 33.7811 47.1806 34.1621 46.9736C34.4151 46.8446 34.6471 46.7206 34.8811 46.5736C35.2021 46.3976 35.4551 46.2526 35.7101 46.1056C35.7911 46.0545 35.8772 46.0119 35.9671 45.9786C36.3391 45.7256 36.6671 45.5316 36.9761 45.3156C37.5051 44.9716 37.8851 44.7016 38.2621 44.4306C38.6391 44.1596 39.0391 43.8566 39.4071 43.5716L44.0911 38.8876C44.6075 38.4643 45.1495 38.0732 45.7141 37.7166C45.9981 37.5306 46.3244 37.326 46.6931 37.1026C46.7281 37.0816 46.9601 36.9436 46.9931 36.9266L47.8851 36.4066C47.9411 36.3716 48.0021 36.3416 48.0631 36.3066C49.4801 35.5251 50.9424 34.8286 52.4421 34.2206C52.8211 34.0636 53.0771 33.9606 53.3421 33.8646C53.6071 33.7686 53.8621 33.6706 54.1501 33.5646C55.9144 32.9278 57.7212 32.4152 59.5571 32.0306C59.8331 31.9536 60.1851 31.8906 60.5471 31.8306C61.1471 31.7046 61.8071 31.5966 62.4861 31.5096C63.0951 31.4226 63.7151 31.3506 64.3451 31.3016C64.5772 31.2688 64.8108 31.2484 65.0451 31.2406C65.3751 31.2076 65.7641 31.1816 66.1641 31.1706C66.7641 31.1426 67.4031 31.1266 68.0491 31.1266C71.576 31.1341 75.0872 31.5979 78.4951 32.5066C78.9491 32.6256 79.4321 32.7576 79.9001 32.9066C81.0221 33.2346 82.1761 33.6326 83.3381 34.0896C83.6871 34.2256 84.0191 34.3616 84.3501 34.5086C84.6811 34.6556 85.0131 34.7846 85.3621 34.9396C85.8091 35.1396 86.1091 35.2726 86.4091 35.4076L87.4631 35.9256L87.5751 35.9816L61.1851 9.59063L61.0851 9.48563L56.1941 4.60063C54.7956 3.19329 53.1386 2.06907 51.3141 1.28963C48.4266 0.0405489 45.2303 -0.311636 42.1401 0.278793C39.05 0.869222 36.2087 2.37499 33.9851 4.60063L4.65708 33.9146Z" fill="url(#paint3_linear_29_203)"/>
<defs>
<linearGradient id="paint0_linear_29_203" x1="16.461" y1="50.8266" x2="16.461" y2="60.7146" gradientUnits="userSpaceOnUse">
<stop stop-color="#064B09"/>
<stop offset="1" stop-color="#00B906"/>
</linearGradient>
<linearGradient id="paint1_linear_29_203" x1="97.592" y1="3.3609" x2="97.592" y2="43.9416" gradientUnits="userSpaceOnUse">
<stop stop-color="#064B09"/>
<stop offset="1" stop-color="#00B906"/>
</linearGradient>
<linearGradient id="paint2_linear_29_203" x1="72.3325" y1="33.9548" x2="72.3325" y2="61.6007" gradientUnits="userSpaceOnUse">
<stop stop-color="#064B09"/>
<stop offset="1" stop-color="#00B906"/>
</linearGradient>
<linearGradient id="paint3_linear_29_203" x1="43.825" y1="0" x2="43.825" y2="51.2868" gradientUnits="userSpaceOnUse">
<stop stop-color="#064B09"/>
<stop offset="1" stop-color="#00B906"/>
</linearGradient>
</defs>
</svg>
