<svg width="44" height="44" viewBox="0 0 44 44" fill="none" xmlns="http://www.w3.org/2000/svg">
<path d="M38 0H6C2.68629 0 0 2.68629 0 6V38C0 41.3137 2.68629 44 6 44H38C41.3137 44 44 41.3137 44 38V6C44 2.68629 41.3137 0 38 0Z" fill="#FBFBFB"/>
<path d="M10.286 8.66998H32.773C33.0984 8.66998 33.4105 8.79926 33.6406 9.02936C33.8707 9.25947 34 9.57156 34 9.89698V11.028C34 11.3534 33.8707 11.6655 33.6406 11.8956C33.4105 12.1257 33.0984 12.255 32.773 12.255H10.286C9.96054 12.255 9.64845 12.1257 9.41834 11.8956C9.18823 11.6655 9.05896 11.3534 9.05896 11.028V9.89698C9.05896 9.57156 9.18823 9.25947 9.41834 9.02936C9.64845 8.79926 9.96054 8.66998 10.286 8.66998Z" fill="black"/>
<path d="M32.773 19.42H16.345C16.0201 19.42 15.7084 19.2911 15.4784 19.0617C15.2484 18.8322 15.1188 18.5209 15.118 18.196V17.065C15.118 16.7396 15.2473 16.4275 15.4774 16.1974C15.7075 15.9673 16.0196 15.838 16.345 15.838H32.773C33.0984 15.838 33.4105 15.9673 33.6406 16.1974C33.8707 16.4275 34 16.7396 34 17.065V18.196C33.9995 18.521 33.8699 18.8324 33.6398 19.062C33.4098 19.2915 33.098 19.4202 32.773 19.42Z" fill="black"/>
<path d="M12.7449 30.186H32.7729C33.0984 30.186 33.4105 30.3152 33.6406 30.5454C33.8707 30.7755 33.9999 31.0876 33.9999 31.413V32.544C33.9999 32.8694 33.8707 33.1815 33.6406 33.4116C33.4105 33.6417 33.0984 33.771 32.7729 33.771H12.7449C12.4195 33.771 12.1074 33.6417 11.8773 33.4116C11.6472 33.1815 11.5179 32.8694 11.5179 32.544V31.413C11.5179 31.0876 11.6472 30.7755 11.8773 30.5454C12.1074 30.3152 12.4195 30.186 12.7449 30.186Z" fill="black"/>
<path d="M32.773 26.598H18.798C18.4726 26.598 18.1605 26.4687 17.9304 26.2386C17.7003 26.0085 17.571 25.6964 17.571 25.371V24.24C17.571 24.0788 17.6027 23.9193 17.6644 23.7704C17.726 23.6216 17.8164 23.4863 17.9304 23.3724C18.0443 23.2584 18.1796 23.168 18.3284 23.1064C18.4773 23.0447 18.6369 23.013 18.798 23.013H32.773C32.9341 23.013 33.0937 23.0447 33.2425 23.1064C33.3914 23.168 33.5267 23.2584 33.6406 23.3724C33.7545 23.4863 33.8449 23.6216 33.9066 23.7704C33.9682 23.9193 34 24.0788 34 24.24V25.371C34 25.6964 33.8707 26.0085 33.6406 26.2386C33.4105 26.4687 33.0984 26.598 32.773 26.598Z" fill="black"/>
</svg>
