<svg width="273" height="173" viewBox="0 0 273 173" fill="none" xmlns="http://www.w3.org/2000/svg">
<path d="M0.0438087 25H2.77381V16.355H9.80881C14.7788 16.355 18.6638 13.17 18.6638 8.655C18.6638 4.14 14.7788 0.954999 9.80881 0.954999H0.0438087V25ZM2.77381 13.765V3.545H9.31881C13.2388 3.545 15.8988 5.435 15.8988 8.655C15.8988 11.875 13.2388 13.765 9.31881 13.765H2.77381ZM22.4632 25H25.0882V0.534998H22.4632V25ZM38.5479 23.075C34.9779 23.075 32.4929 20.485 32.1079 16.95H46.9129C46.9129 10.615 43.7979 6.485 38.3379 6.485C33.4729 6.485 29.4129 10.51 29.4129 15.9C29.4129 21.465 33.7529 25.42 38.5829 25.42C41.1029 25.42 44.2879 24.335 45.8629 22.62L44.2529 20.905C43.1329 22.13 40.6829 23.075 38.5479 23.075ZM38.4429 8.83C42.0479 8.83 43.9729 11.35 44.3229 14.605H32.1429C32.6329 11.105 35.2229 8.83 38.4429 8.83ZM58.5583 6.485C56.8083 6.485 54.6383 6.94 52.0483 8.235L53.0983 10.37C54.7433 9.53 56.5633 8.725 58.3833 8.725C62.3033 8.725 63.2833 11.525 63.2833 13.975V14.64C61.4283 14.045 59.3633 13.625 57.4033 13.625C53.5183 13.625 50.2983 16.04 50.2983 19.645C50.2983 23.215 53.0983 25.42 56.9133 25.42C59.2933 25.42 61.9883 24.3 63.2833 22.165V25H65.9083V13.975C65.9083 9.6 63.4933 6.485 58.5583 6.485ZM57.3683 23.11C54.8133 23.11 52.8533 21.78 52.8533 19.54C52.8533 17.37 55.1283 15.83 57.8233 15.83C59.7833 15.83 61.6383 16.11 63.2833 16.565V19.33C62.5833 21.885 59.7483 23.11 57.3683 23.11ZM77.6768 25.42C81.4218 25.42 84.2918 23.285 84.2918 19.96C84.2918 16.53 81.2818 15.55 78.3768 14.64C75.0168 13.555 73.6868 13.065 73.6868 11.49C73.6868 9.74 75.3668 8.83 77.3968 8.83C79.0068 8.83 80.7918 9.39 82.6118 10.545L83.8718 8.515C81.9468 7.255 79.6368 6.485 77.3968 6.485C73.7918 6.485 71.0618 8.515 71.0618 11.805C71.0618 14.395 72.7418 15.69 77.1168 16.95C79.5668 17.65 81.6668 18.28 81.6668 20.24C81.6668 21.955 80.0568 23.075 77.6768 23.075C75.6818 23.075 73.6168 22.305 71.5518 20.8L70.1868 22.725C72.3568 24.475 75.1568 25.42 77.6768 25.42ZM96.7901 23.075C93.2201 23.075 90.7351 20.485 90.3501 16.95H105.155C105.155 10.615 102.04 6.485 96.5801 6.485C91.7151 6.485 87.6551 10.51 87.6551 15.9C87.6551 21.465 91.9951 25.42 96.8251 25.42C99.3451 25.42 102.53 24.335 104.105 22.62L102.495 20.905C101.375 22.13 98.9251 23.075 96.7901 23.075ZM96.6851 8.83C100.29 8.83 102.215 11.35 102.565 14.605H90.3851C90.8751 11.105 93.4651 8.83 96.6851 8.83ZM126.007 25.42C129.752 25.42 132.622 23.285 132.622 19.96C132.622 16.53 129.612 15.55 126.707 14.64C123.347 13.555 122.017 13.065 122.017 11.49C122.017 9.74 123.697 8.83 125.727 8.83C127.337 8.83 129.122 9.39 130.942 10.545L132.202 8.515C130.277 7.255 127.967 6.485 125.727 6.485C122.122 6.485 119.392 8.515 119.392 11.805C119.392 14.395 121.072 15.69 125.447 16.95C127.897 17.65 129.997 18.28 129.997 20.24C129.997 21.955 128.387 23.075 126.007 23.075C124.012 23.075 121.947 22.305 119.882 20.8L118.517 22.725C120.687 24.475 123.487 25.42 126.007 25.42ZM139.66 31.3C142.145 31.265 143.895 30.11 145.155 27.03L153.415 6.905H150.58L144.595 21.955L138.26 6.905H135.355L143.23 25.07L142.18 27.31C141.48 28.535 140.71 28.92 139.555 28.92C138.785 28.92 138.05 28.78 137.42 28.465L136.79 30.705C137.63 31.09 138.61 31.3 139.66 31.3ZM166.322 6.485C163.767 6.485 161.422 7.885 160.372 9.81V6.905H157.747V25H160.372V13.485C160.372 10.965 162.927 8.83 165.972 8.83C168.632 8.83 170.487 10.895 170.487 13.835V25H173.112V13.485C173.112 9.39 170.312 6.485 166.322 6.485ZM186.825 25.42C189.345 25.42 191.655 24.37 193.37 22.655L191.55 20.87C190.325 22.235 188.645 23.075 186.825 23.075C183.22 23.075 180.21 19.82 180.21 15.935C180.21 12.085 183.22 8.83 186.825 8.83C188.61 8.83 190.255 9.635 191.445 10.93L193.265 9.145C191.55 7.5 189.275 6.485 186.825 6.485C181.75 6.485 177.445 10.79 177.445 15.935C177.445 21.08 181.75 25.42 186.825 25.42ZM212.166 25H214.651L219.516 10.545L224.311 25H226.796L232.886 6.905H230.086L225.571 21.5L220.636 6.905H218.361L213.426 21.5L208.911 6.905H206.111L212.166 25ZM237.997 3.615C238.942 3.615 239.712 2.81 239.712 1.865C239.712 0.954999 238.942 0.149999 237.997 0.149999C237.017 0.149999 236.247 0.954999 236.247 1.865C236.247 2.81 237.017 3.615 237.997 3.615ZM236.667 25H239.292V6.905H236.667V25ZM252.508 22.34C252.123 22.76 251.423 23.075 250.618 23.075C249.568 23.075 248.658 22.13 248.658 20.8V9.25H253.103V6.905H248.658V1.935H246.033V6.905H243.198V9.25H246.033V20.8C246.033 23.495 247.853 25.42 250.443 25.42C251.668 25.42 252.858 25 253.803 24.265L252.508 22.34ZM266.127 6.485C263.572 6.485 261.227 7.885 260.177 9.81V0.534998H257.552V25H260.177V13.485C260.177 10.965 262.732 8.83 265.777 8.83C268.437 8.83 270.292 10.895 270.292 13.835V25H272.917V13.485C272.917 9.39 270.117 6.485 266.127 6.485ZM61.0965 172H63.8265V150.545H71.9115V147.955H53.0115V150.545H61.0965V172ZM84.2974 170.075C80.7274 170.075 78.2424 167.485 77.8574 163.95H92.6624C92.6624 157.615 89.5474 153.485 84.0874 153.485C79.2224 153.485 75.1624 157.51 75.1624 162.9C75.1624 168.465 79.5024 172.42 84.3324 172.42C86.8524 172.42 90.0374 171.335 91.6124 169.62L90.0024 167.905C88.8824 169.13 86.4324 170.075 84.2974 170.075ZM84.1924 155.83C87.7974 155.83 89.7224 158.35 90.0724 161.605H77.8924C78.3824 158.105 80.9724 155.83 84.1924 155.83ZM96.9579 172H99.5829V147.535H96.9579V172ZM113.043 170.075C109.473 170.075 106.988 167.485 106.603 163.95H121.408C121.408 157.615 118.293 153.485 112.833 153.485C107.968 153.485 103.908 157.51 103.908 162.9C103.908 168.465 108.248 172.42 113.078 172.42C115.598 172.42 118.783 171.335 120.358 169.62L118.748 167.905C117.628 169.13 115.178 170.075 113.043 170.075ZM112.938 155.83C116.543 155.83 118.468 158.35 118.818 161.605H106.638C107.128 158.105 109.718 155.83 112.938 155.83ZM145.268 153.485C142.538 153.485 140.158 154.99 139.423 157.335C138.443 154.99 136.308 153.485 133.578 153.485C131.198 153.485 129.238 154.675 128.328 156.565V153.905H125.703V172H128.328V160.485C128.328 157.755 130.358 155.83 133.228 155.83C135.678 155.83 137.393 157.895 137.393 160.835V172H140.018V160.485C140.018 157.755 142.048 155.83 144.918 155.83C147.368 155.83 149.083 157.895 149.083 160.835V172H151.708V160.485C151.708 156.39 149.048 153.485 145.268 153.485ZM164.362 153.485C162.612 153.485 160.442 153.94 157.852 155.235L158.902 157.37C160.547 156.53 162.367 155.725 164.187 155.725C168.107 155.725 169.087 158.525 169.087 160.975V161.64C167.232 161.045 165.167 160.625 163.207 160.625C159.322 160.625 156.102 163.04 156.102 166.645C156.102 170.215 158.902 172.42 162.717 172.42C165.097 172.42 167.792 171.3 169.087 169.165V172H171.712V160.975C171.712 156.6 169.297 153.485 164.362 153.485ZM163.172 170.11C160.617 170.11 158.657 168.78 158.657 166.54C158.657 164.37 160.932 162.83 163.627 162.83C165.587 162.83 167.442 163.11 169.087 163.565V166.33C168.387 168.885 165.552 170.11 163.172 170.11ZM185.02 169.34C184.635 169.76 183.935 170.075 183.13 170.075C182.08 170.075 181.17 169.13 181.17 167.8V156.25H185.615V153.905H181.17V148.935H178.545V153.905H175.71V156.25H178.545V167.8C178.545 170.495 180.365 172.42 182.955 172.42C184.18 172.42 185.37 172 186.315 171.265L185.02 169.34ZM191.324 150.615C192.269 150.615 193.039 149.81 193.039 148.865C193.039 147.955 192.269 147.15 191.324 147.15C190.344 147.15 189.574 147.955 189.574 148.865C189.574 149.81 190.344 150.615 191.324 150.615ZM189.994 172H192.619V153.905H189.994V172ZM206.29 172.42C208.81 172.42 211.12 171.37 212.835 169.655L211.015 167.87C209.79 169.235 208.11 170.075 206.29 170.075C202.685 170.075 199.675 166.82 199.675 162.935C199.675 159.085 202.685 155.83 206.29 155.83C208.075 155.83 209.72 156.635 210.91 157.93L212.73 156.145C211.015 154.5 208.74 153.485 206.29 153.485C201.215 153.485 196.91 157.79 196.91 162.935C196.91 168.08 201.215 172.42 206.29 172.42ZM223.265 172.42C227.01 172.42 229.88 170.285 229.88 166.96C229.88 163.53 226.87 162.55 223.965 161.64C220.605 160.555 219.275 160.065 219.275 158.49C219.275 156.74 220.955 155.83 222.985 155.83C224.595 155.83 226.38 156.39 228.2 157.545L229.46 155.515C227.535 154.255 225.225 153.485 222.985 153.485C219.38 153.485 216.65 155.515 216.65 158.805C216.65 161.395 218.33 162.69 222.705 163.95C225.155 164.65 227.255 165.28 227.255 167.24C227.255 168.955 225.645 170.075 223.265 170.075C221.27 170.075 219.205 169.305 217.14 167.8L215.775 169.725C217.945 171.475 220.745 172.42 223.265 172.42Z" fill="black"/>
<path d="M130.24 70.745C130.24 70.535 127.65 69.975 123.835 69.555C127.615 63.99 131.78 58.425 134.93 55.415C136.05 54.365 137.17 53.595 137.835 54.015C138.465 54.47 137.24 52.16 135.21 52.16C134.965 52.16 134.44 52.335 133.81 52.72C132.935 53.315 131.815 54.295 130.625 55.555C127.545 58.915 123.835 64.13 120.615 69.24C119.04 69.135 117.57 69.1 116.205 69.1C114.7 69.1 113.265 69.135 111.795 69.24C114.805 65.32 119.425 59.195 119.425 55.52C119.39 52.685 116.695 52.02 114 52.055C104.06 52.16 87.0154 63.955 87.0854 69.835C87.0854 70.99 87.8904 71.69 89.1504 71.655C90.4104 71.655 91.6704 70.57 91.6704 70.255C91.3554 70.535 90.5154 70.745 89.9904 70.745C89.6404 70.745 89.3954 70.64 89.3954 70.185C89.3604 68.26 103.815 53.035 114.28 52.86C115.645 52.825 116.905 53.28 116.94 54.61C116.975 57.06 111.445 64.655 107.98 69.38C105.635 69.695 94.1554 70.78 94.1904 73.755C94.1904 74.98 95.2404 75.785 95.2404 75.4C95.2054 74.63 100.35 72.355 106.51 71.34C101.645 78.235 98.8804 84.115 98.8804 86.915C98.8804 88.175 99.5804 89.015 100.385 88.98C100.595 88.98 100.805 88.945 100.98 88.875C100.49 88.805 100.28 88.49 100.28 88.035C100.245 85.55 105.25 77.57 110.5 70.885C115.54 70.325 117.64 70.185 120.09 70.15C116.59 75.925 113.685 82.435 113.86 85.55C113.93 86.32 114.525 86.95 115.05 86.915C115.75 86.88 116.905 85.83 117.535 85.095C116.905 85.445 116.45 85.9 115.68 85.97C115.435 86.005 115.33 85.865 115.33 85.585C115.225 83.625 118.865 77.08 123.38 70.22C126.915 70.36 129.47 70.745 130.24 70.745ZM140.973 70.185C141.463 69.66 141.918 69.345 142.198 69.38C142.443 69.415 142.583 69.59 142.583 69.45C142.583 68.575 141.218 67.175 140.413 67.175C140.238 67.175 140.098 67.21 139.888 67.385C137.963 68.925 135.233 71.935 133.378 73.72C131.733 75.33 128.163 78.48 126.483 79.18C126.483 78.165 128.198 75.085 129.983 72.775C131.173 71.2 132.608 69.52 133.168 69.59C133.448 69.625 133.553 69.8 133.553 69.66C133.553 68.75 132.223 67.385 131.383 67.385C131.278 67.385 131.068 67.42 130.893 67.595C130.018 68.295 128.583 69.87 127.393 71.585C125.398 74.35 123.473 77.885 123.473 79.39C123.473 80.23 124.558 81.175 125.118 81.175C125.188 81.175 125.293 81.175 125.398 81.175C127.498 80.755 132.433 75.505 135.968 71.9C131.033 77.57 126.273 86.845 124.453 90.835C123.823 92.305 123.088 93.845 122.983 94.895C122.878 95.525 123.403 97.45 124.803 97.31C124.978 97.31 125.118 97.275 125.188 97.205C125.573 95.525 130.193 88.175 135.198 84.185C135.198 84.185 135.198 83.975 135.023 83.975C134.008 84.29 128.933 88.945 126.168 92.76C128.233 88.875 133.798 78.9 136.528 75.505C138.068 73.615 139.503 71.725 140.973 70.185ZM148.802 72.46C145.582 76.17 142.642 78.55 141.592 79.11C141.872 77.115 144.917 72.39 146.317 70.78C146.807 70.22 147.227 69.905 147.542 69.905C147.857 69.94 147.962 70.08 147.927 69.975C147.892 69.065 146.457 67.7 145.547 67.7C145.442 67.7 145.232 67.735 145.057 67.91C144.252 68.575 143.552 69.415 142.502 71.025C140.542 73.965 138.722 77.92 138.792 79.74C138.862 80.02 139.737 81.385 140.402 81.385C140.787 81.385 141.802 80.51 142.887 79.6C144.287 78.445 146.702 75.715 148.312 73.86C147.402 75.75 146.457 78.235 146.632 79.6C146.667 79.88 147.542 81.245 148.417 81.245C149.817 81.245 159.897 71.515 162.522 64.725C162.697 64.375 162.627 64.375 162.417 64.655C159.127 69.87 153.597 76.31 149.187 79.005C149.047 78.515 150.062 75.82 151.322 73.825C152.652 71.725 153.422 70.85 153.947 70.885C154.297 70.92 154.402 71.06 154.402 70.955C154.332 70.045 152.827 68.715 151.987 68.715C151.882 68.715 151.672 68.75 151.497 68.89C150.832 69.45 150.132 70.5 148.802 72.46ZM164.622 78.095C164.482 78.62 164.342 79.04 164.342 79.39C164.342 80.02 165.007 80.755 165.497 81.035C165.742 81.175 165.917 81.245 166.092 81.245C168.192 81.245 173.897 75.4 176.942 72.075C177.047 71.97 176.872 71.69 176.697 71.865C174.527 73.895 169.522 78.69 167.317 79.32C167.317 79.04 167.457 78.62 167.667 78.13C168.717 75.89 171.867 72.075 172.042 72.425C172.182 72.005 170.992 70.08 170.292 70.43C169.417 70.92 167.142 73.125 166.512 73.685C164.692 75.225 159.792 78.76 158.637 79.145C158.532 79.18 158.462 79.18 158.392 79.145C158.077 78.97 160.702 74.56 164.027 71.725C166.302 69.8 168.857 68.33 170.887 68.225C171.937 68.155 172.602 68.68 172.602 69.73C172.602 70.255 172.392 70.675 172.217 70.99C172.182 71.025 172.252 71.06 172.322 71.025C172.672 70.57 172.987 69.975 172.987 69.38C172.987 67.735 171.237 67.175 169.907 67.175C163.467 67.175 155.452 74.98 155.452 78.795C155.452 79.495 156.362 80.825 156.992 81.14C157.062 81.175 157.237 81.245 157.307 81.245C158.777 81.245 165.602 75.365 166.652 74.315C165.987 75.19 165.042 76.8 164.622 78.095ZM189.815 70.185C190.305 69.66 190.76 69.345 191.04 69.38C191.285 69.415 191.425 69.59 191.425 69.45C191.425 68.575 190.06 67.175 189.255 67.175C189.08 67.175 188.94 67.21 188.73 67.385C186.805 68.925 184.075 71.935 182.22 73.72C180.575 75.33 177.005 78.48 175.325 79.18C175.325 78.165 177.04 75.085 178.825 72.775C180.015 71.2 181.45 69.52 182.01 69.59C182.29 69.625 182.395 69.8 182.395 69.66C182.395 68.75 181.065 67.385 180.225 67.385C180.12 67.385 179.91 67.42 179.735 67.595C178.86 68.295 177.425 69.87 176.235 71.585C174.24 74.35 172.315 77.885 172.315 79.39C172.315 80.23 173.4 81.175 173.96 81.175C174.03 81.175 174.135 81.175 174.24 81.175C176.34 80.755 181.275 75.505 184.81 71.9C179.875 77.57 175.115 86.845 173.295 90.835C172.665 92.305 171.93 93.845 171.825 94.895C171.72 95.525 172.245 97.45 173.645 97.31C173.82 97.31 173.96 97.275 174.03 97.205C174.415 95.525 179.035 88.175 184.04 84.185C184.04 84.185 184.04 83.975 183.865 83.975C182.85 84.29 177.775 88.945 175.01 92.76C177.075 88.875 182.64 78.9 185.37 75.505C186.91 73.615 188.345 71.725 189.815 70.185ZM199.408 68.575C199.338 69.275 196.993 71.725 196.888 71.725C196.853 71.725 196.923 71.865 196.958 71.865C197.903 71.865 200.108 69.765 200.143 69.275C200.248 68.26 199.793 66.65 198.813 66.65C195.733 66.65 190.693 69.275 190.133 71.935C189.818 73.475 191.883 74.735 192.268 75.225C191.043 75.715 185.897 78.655 185.792 80.16C185.967 80.93 186.352 81.56 187.122 81.56C189.398 81.56 194.018 79.705 194.508 77.43C194.613 76.695 193.738 75.68 193.283 75.33C197.098 73.055 204.028 71.235 203.713 71.13C203.713 71.025 203.573 70.955 203.503 70.955C203.048 70.955 198.568 71.725 192.968 74.875C192.618 74.56 191.778 74 191.918 73.405C192.373 71.76 197.798 68.435 199.408 68.575ZM192.408 75.82C192.408 77.15 188.068 79.39 186.702 79.775C187.718 78.76 190.308 77.01 192.408 75.82Z" fill="#00B906"/>
</svg>
