<svg width="172" height="84" viewBox="0 0 172 84" fill="none" xmlns="http://www.w3.org/2000/svg">
<path d="M7.45883 21H9.76883L15.5288 3.45L21.2588 21H23.5688L30.6188 0.389999H27.9788L22.2788 17.07L16.8188 0.389999H14.2088L8.74883 17.07L3.04883 0.389999H0.408828L7.45883 21ZM39.3598 19.35C36.2998 19.35 34.1698 17.13 33.8398 14.1H46.5298C46.5298 8.67 43.8598 5.13 39.1798 5.13C35.0098 5.13 31.5298 8.58 31.5298 13.2C31.5298 17.97 35.2498 21.36 39.3898 21.36C41.5498 21.36 44.2798 20.43 45.6298 18.96L44.2498 17.49C43.2898 18.54 41.1898 19.35 39.3598 19.35ZM39.2698 7.14C42.3598 7.14 44.0098 9.3 44.3098 12.09H33.8698C34.2898 9.09 36.5098 7.14 39.2698 7.14ZM50.2116 21H52.4616V0.0299982H50.2116V21ZM64.2085 21.36C66.3685 21.36 68.3485 20.46 69.8185 18.99L68.2585 17.46C67.2085 18.63 65.7685 19.35 64.2085 19.35C61.1185 19.35 58.5385 16.56 58.5385 13.23C58.5385 9.93 61.1185 7.14 64.2085 7.14C65.7385 7.14 67.1485 7.83 68.1685 8.94L69.7285 7.41C68.2585 6 66.3085 5.13 64.2085 5.13C59.8585 5.13 56.1685 8.82 56.1685 13.23C56.1685 17.64 59.8585 21.36 64.2085 21.36ZM80.146 21.36C84.496 21.36 88.156 17.64 88.156 13.23C88.156 8.82 84.496 5.13 80.146 5.13C75.796 5.13 72.106 8.82 72.106 13.23C72.106 17.64 75.796 21.36 80.146 21.36ZM80.146 19.35C77.056 19.35 74.476 16.56 74.476 13.23C74.476 9.93 77.056 7.14 80.146 7.14C83.206 7.14 85.786 9.93 85.786 13.23C85.786 16.56 83.206 19.35 80.146 19.35ZM108.642 5.13C106.302 5.13 104.262 6.42 103.632 8.43C102.792 6.42 100.962 5.13 98.6218 5.13C96.5818 5.13 94.9018 6.15 94.1218 7.77V5.49H91.8718V21H94.1218V11.13C94.1218 8.79 95.8618 7.14 98.3218 7.14C100.422 7.14 101.892 8.91 101.892 11.43V21H104.142V11.13C104.142 8.79 105.882 7.14 108.342 7.14C110.442 7.14 111.912 8.91 111.912 11.43V21H114.162V11.13C114.162 7.62 111.882 5.13 108.642 5.13ZM125.698 19.35C122.638 19.35 120.508 17.13 120.178 14.1H132.868C132.868 8.67 130.198 5.13 125.518 5.13C121.348 5.13 117.868 8.58 117.868 13.2C117.868 17.97 121.588 21.36 125.728 21.36C127.888 21.36 130.618 20.43 131.968 18.96L130.588 17.49C129.628 18.54 127.528 19.35 125.698 19.35ZM125.608 7.14C128.698 7.14 130.348 9.3 130.648 12.09H120.208C120.628 9.09 122.848 7.14 125.608 7.14ZM152.061 18.72C151.731 19.08 151.131 19.35 150.441 19.35C149.541 19.35 148.761 18.54 148.761 17.4V7.5H152.571V5.49H148.761V1.23H146.511V5.49H144.081V7.5H146.511V17.4C146.511 19.71 148.071 21.36 150.291 21.36C151.341 21.36 152.361 21 153.171 20.37L152.061 18.72ZM163.554 21.36C167.904 21.36 171.564 17.64 171.564 13.23C171.564 8.82 167.904 5.13 163.554 5.13C159.204 5.13 155.514 8.82 155.514 13.23C155.514 17.64 159.204 21.36 163.554 21.36ZM163.554 19.35C160.464 19.35 157.884 16.56 157.884 13.23C157.884 9.93 160.464 7.14 163.554 7.14C166.614 7.14 169.194 9.93 169.194 13.23C169.194 16.56 166.614 19.35 163.554 19.35Z" fill="black"/>
<path d="M80.8489 60.21C80.8489 60.03 78.6289 59.55 75.3589 59.19C78.5989 54.42 82.1689 49.65 84.8689 47.07C85.8289 46.17 86.7889 45.51 87.3589 45.87C87.8989 46.26 86.8489 44.28 85.1089 44.28C84.8989 44.28 84.4489 44.43 83.9089 44.76C83.1589 45.27 82.1989 46.11 81.1789 47.19C78.5389 50.07 75.3589 54.54 72.5989 58.92C71.2489 58.83 69.9889 58.8 68.8189 58.8C67.5289 58.8 66.2989 58.83 65.0389 58.92C67.6189 55.56 71.5789 50.31 71.5789 47.16C71.5489 44.73 69.2389 44.16 66.9289 44.19C58.4089 44.28 43.7989 54.39 43.8589 59.43C43.8589 60.42 44.5489 61.02 45.6289 60.99C46.7089 60.99 47.7889 60.06 47.7889 59.79C47.5189 60.03 46.7989 60.21 46.3489 60.21C46.0489 60.21 45.8389 60.12 45.8389 59.73C45.8089 58.08 58.1989 45.03 67.1689 44.88C68.3389 44.85 69.4189 45.24 69.4489 46.38C69.4789 48.48 64.7389 54.99 61.7689 59.04C59.7589 59.31 49.9189 60.24 49.9489 62.79C49.9489 63.84 50.8489 64.53 50.8489 64.2C50.8189 63.54 55.2289 61.59 60.5089 60.72C56.3389 66.63 53.9689 71.67 53.9689 74.07C53.9689 75.15 54.5689 75.87 55.2589 75.84C55.4389 75.84 55.6189 75.81 55.7689 75.75C55.3489 75.69 55.1689 75.42 55.1689 75.03C55.1389 72.9 59.4289 66.06 63.9289 60.33C68.2489 59.85 70.0489 59.73 72.1489 59.7C69.1489 64.65 66.6589 70.23 66.8089 72.9C66.8689 73.56 67.3789 74.1 67.8289 74.07C68.4289 74.04 69.4189 73.14 69.9589 72.51C69.4189 72.81 69.0289 73.2 68.3689 73.26C68.1589 73.29 68.0689 73.17 68.0689 72.93C67.9789 71.25 71.0989 65.64 74.9689 59.76C77.9989 59.88 80.1889 60.21 80.8489 60.21ZM90.0479 59.73C90.4679 59.28 90.8579 59.01 91.0979 59.04C91.3079 59.07 91.4279 59.22 91.4279 59.1C91.4279 58.35 90.2579 57.15 89.5679 57.15C89.4179 57.15 89.2979 57.18 89.1179 57.33C87.4679 58.65 85.1279 61.23 83.5379 62.76C82.1279 64.14 79.0679 66.84 77.6279 67.44C77.6279 66.57 79.0979 63.93 80.6279 61.95C81.6479 60.6 82.8779 59.16 83.3579 59.22C83.5979 59.25 83.6879 59.4 83.6879 59.28C83.6879 58.5 82.5479 57.33 81.8279 57.33C81.7379 57.33 81.5579 57.36 81.4079 57.51C80.6579 58.11 79.4279 59.46 78.4079 60.93C76.6979 63.3 75.0479 66.33 75.0479 67.62C75.0479 68.34 75.9779 69.15 76.4579 69.15C76.5179 69.15 76.6079 69.15 76.6979 69.15C78.4979 68.79 82.7279 64.29 85.7579 61.2C81.5279 66.06 77.4479 74.01 75.8879 77.43C75.3479 78.69 74.7179 80.01 74.6279 80.91C74.5379 81.45 74.9879 83.1 76.1879 82.98C76.3379 82.98 76.4579 82.95 76.5179 82.89C76.8479 81.45 80.8079 75.15 85.0979 71.73C85.0979 71.73 85.0979 71.55 84.9479 71.55C84.0779 71.82 79.7279 75.81 77.3579 79.08C79.1279 75.75 83.8979 67.2 86.2379 64.29C87.5579 62.67 88.7879 61.05 90.0479 59.73ZM96.7592 61.68C93.9992 64.86 91.4792 66.9 90.5792 67.38C90.8192 65.67 93.4292 61.62 94.6292 60.24C95.0492 59.76 95.4092 59.49 95.6792 59.49C95.9492 59.52 96.0392 59.64 96.0092 59.55C95.9792 58.77 94.7492 57.6 93.9692 57.6C93.8792 57.6 93.6992 57.63 93.5492 57.78C92.8592 58.35 92.2592 59.07 91.3592 60.45C89.6792 62.97 88.1192 66.36 88.1792 67.92C88.2392 68.16 88.9892 69.33 89.5592 69.33C89.8892 69.33 90.7592 68.58 91.6892 67.8C92.8892 66.81 94.9592 64.47 96.3392 62.88C95.5592 64.5 94.7492 66.63 94.8992 67.8C94.9292 68.04 95.6792 69.21 96.4292 69.21C97.6292 69.21 106.269 60.87 108.519 55.05C108.669 54.75 108.609 54.75 108.429 54.99C105.609 59.46 100.869 64.98 97.0892 67.29C96.9692 66.87 97.8392 64.56 98.9192 62.85C100.059 61.05 100.719 60.3 101.169 60.33C101.469 60.36 101.559 60.48 101.559 60.39C101.499 59.61 100.209 58.47 99.4892 58.47C99.3992 58.47 99.2192 58.5 99.0692 58.62C98.4992 59.1 97.8992 60 96.7592 61.68ZM110.319 66.51C110.199 66.96 110.079 67.32 110.079 67.62C110.079 68.16 110.649 68.79 111.069 69.03C111.279 69.15 111.429 69.21 111.579 69.21C113.379 69.21 118.269 64.2 120.879 61.35C120.969 61.26 120.819 61.02 120.669 61.17C118.809 62.91 114.519 67.02 112.629 67.56C112.629 67.32 112.749 66.96 112.929 66.54C113.829 64.62 116.529 61.35 116.679 61.65C116.799 61.29 115.779 59.64 115.179 59.94C114.429 60.36 112.479 62.25 111.939 62.73C110.379 64.05 106.179 67.08 105.189 67.41C105.099 67.44 105.039 67.44 104.979 67.41C104.709 67.26 106.959 63.48 109.809 61.05C111.759 59.4 113.949 58.14 115.689 58.05C116.589 57.99 117.159 58.44 117.159 59.34C117.159 59.79 116.979 60.15 116.829 60.42C116.799 60.45 116.859 60.48 116.919 60.45C117.219 60.06 117.489 59.55 117.489 59.04C117.489 57.63 115.989 57.15 114.849 57.15C109.329 57.15 102.459 63.84 102.459 67.11C102.459 67.71 103.239 68.85 103.779 69.12C103.839 69.15 103.989 69.21 104.049 69.21C105.309 69.21 111.159 64.17 112.059 63.27C111.489 64.02 110.679 65.4 110.319 66.51ZM131.913 59.73C132.333 59.28 132.723 59.01 132.963 59.04C133.173 59.07 133.293 59.22 133.293 59.1C133.293 58.35 132.123 57.15 131.433 57.15C131.283 57.15 131.163 57.18 130.983 57.33C129.333 58.65 126.993 61.23 125.403 62.76C123.993 64.14 120.933 66.84 119.493 67.44C119.493 66.57 120.963 63.93 122.493 61.95C123.513 60.6 124.743 59.16 125.223 59.22C125.463 59.25 125.553 59.4 125.553 59.28C125.553 58.5 124.413 57.33 123.693 57.33C123.603 57.33 123.423 57.36 123.273 57.51C122.523 58.11 121.293 59.46 120.273 60.93C118.563 63.3 116.913 66.33 116.913 67.62C116.913 68.34 117.843 69.15 118.323 69.15C118.383 69.15 118.473 69.15 118.563 69.15C120.363 68.79 124.593 64.29 127.623 61.2C123.393 66.06 119.313 74.01 117.753 77.43C117.213 78.69 116.583 80.01 116.493 80.91C116.403 81.45 116.853 83.1 118.053 82.98C118.203 82.98 118.323 82.95 118.383 82.89C118.713 81.45 122.673 75.15 126.963 71.73C126.963 71.73 126.963 71.55 126.813 71.55C125.943 71.82 121.593 75.81 119.223 79.08C120.993 75.75 125.763 67.2 128.103 64.29C129.423 62.67 130.653 61.05 131.913 59.73ZM140.135 58.35C140.075 58.95 138.065 61.05 137.975 61.05C137.945 61.05 138.005 61.17 138.035 61.17C138.845 61.17 140.735 59.37 140.765 58.95C140.855 58.08 140.465 56.7 139.625 56.7C136.985 56.7 132.665 58.95 132.185 61.23C131.915 62.55 133.685 63.63 134.015 64.05C132.965 64.47 128.555 66.99 128.465 68.28C128.615 68.94 128.945 69.48 129.605 69.48C131.555 69.48 135.515 67.89 135.935 65.94C136.025 65.31 135.275 64.44 134.885 64.14C138.155 62.19 144.095 60.63 143.825 60.54C143.825 60.45 143.705 60.39 143.645 60.39C143.255 60.39 139.415 61.05 134.615 63.75C134.315 63.48 133.595 63 133.715 62.49C134.105 61.08 138.755 58.23 140.135 58.35ZM134.135 64.56C134.135 65.7 130.415 67.62 129.245 67.95C130.115 67.08 132.335 65.58 134.135 64.56Z" fill="#00B906"/>
</svg>
