<svg width="25" height="26" viewBox="0 0 25 26" fill="none" xmlns="http://www.w3.org/2000/svg">
<path d="M1.28602 0.669983H23.773C24.0984 0.669983 24.4105 0.799256 24.6406 1.02936C24.8707 1.25947 25 1.57156 25 1.89698V3.02798C25 3.3534 24.8707 3.6655 24.6406 3.8956C24.4105 4.12571 24.0984 4.25498 23.773 4.25498H1.28602C0.9606 4.25498 0.648508 4.12571 0.418401 3.8956C0.188294 3.6655 0.059021 3.3534 0.059021 3.02798V1.89698C0.059021 1.57156 0.188294 1.25947 0.418401 1.02936C0.648508 0.799256 0.9606 0.669983 1.28602 0.669983Z" fill="black"/>
<path d="M23.3754 11H1.62456C1.19439 11 0.781776 10.8921 0.477225 10.6999C0.172675 10.5077 0.00105177 10.247 0 9.97487V9.02764C0 8.75509 0.171159 8.49371 0.475823 8.30099C0.780488 8.10827 1.1937 8 1.62456 8H23.3754C23.8063 8 24.2195 8.10827 24.5242 8.30099C24.8288 8.49371 25 8.75509 25 9.02764V9.97487C24.9993 10.2471 24.8278 10.5079 24.5232 10.7001C24.2185 10.8924 23.8057 11.0002 23.3754 11Z" fill="black"/>
<path d="M1.36443 22H23.6356C23.9974 22 24.3445 22.1442 24.6004 22.401C24.8562 22.6577 25 23.0059 25 23.369V24.631C25 24.9941 24.8562 25.3423 24.6004 25.599C24.3445 25.8558 23.9974 26 23.6356 26H1.36443C1.00256 26 0.65551 25.8558 0.399631 25.599C0.143752 25.3423 0 24.9941 0 24.631V23.369C0 23.0059 0.143752 22.6577 0.399631 22.401C0.65551 22.1442 1.00256 22 1.36443 22Z" fill="black"/>
<path d="M23.1329 19H1.86713C1.37193 19 0.897022 18.8558 0.546868 18.599C0.196714 18.3423 0 17.9941 0 17.631V16.369C0 16.1893 0.0482942 16.0112 0.142126 15.8451C0.235958 15.679 0.373489 15.5281 0.546868 15.401C0.720247 15.2739 0.926077 15.173 1.15261 15.1042C1.37914 15.0354 1.62193 15 1.86713 15H23.1329C23.3781 15 23.6209 15.0354 23.8474 15.1042C24.0739 15.173 24.2798 15.2739 24.4531 15.401C24.6265 15.5281 24.764 15.679 24.8579 15.8451C24.9517 16.0112 25 16.1893 25 16.369V17.631C25 17.9941 24.8033 18.3423 24.4531 18.599C24.103 18.8558 23.6281 19 23.1329 19Z" fill="black"/>
</svg>
